<svg width="274" height="135" viewBox="0 0 274 135" fill="none" xmlns="http://www.w3.org/2000/svg">
<path d="M61.0035 9.55338C32.5888 9.55338 9.55756 32.5846 9.55756 60.9997C9.55756 81.4731 21.5479 99.0985 38.8605 107.379L40.4708 76.2643C40.4708 76.2643 37.4419 75.2703 36.7789 74.9467C30.3547 72.1168 25.6877 63.7846 25.6877 52.9706C25.6877 41.1703 34.8393 31.0061 43.6871 30.9222C43.6983 30.9222 43.6983 30.9222 43.7057 30.9222C43.7095 30.9222 43.7169 30.9222 43.7204 30.9222C52.5701 31.0058 61.722 41.17 61.722 52.9706C61.722 63.7846 57.0492 72.1133 50.6381 74.9467C50.5878 74.9688 46.9168 76.3018 46.9168 76.3018L48.7151 110.897C52.6614 111.869 56.7644 112.439 61.0106 112.439C66.7369 112.439 72.221 111.463 77.3663 109.739L78.9599 78.908C74.7605 77.9845 71.1786 75.311 68.9336 71.9569C66.1524 67.7908 71.0744 30.9186 71.0744 30.9186H74.2763V65.5195H77.4561V30.9225H80.9335V65.5272H84.0982V30.9225H87.7061V65.5272H90.8817V30.9225H93.3389C93.3389 30.9225 98.2609 67.7947 95.4762 71.9608C93.2533 75.2818 89.705 77.9476 85.5578 78.8932C85.4835 78.9195 85.4162 78.9452 85.4162 78.9452L86.8012 105.465C102.126 96.5558 112.454 80.0029 112.454 61C112.446 32.5849 89.4147 9.55338 61.0035 9.55338Z" fill="black"/>
<path d="M33.2179 47.7397C33.4021 46.9896 33.6498 46.2766 33.6611 46.2638C33.7412 45.9827 33.5922 45.6959 33.2868 45.5136C32.9965 45.3572 32.6427 45.4373 32.4789 45.6886C32.4789 45.6886 32.1271 46.249 31.6169 47.0774C31.202 47.7903 30.5877 48.9295 30.1685 50.3481C29.8055 51.5915 29.3719 53.2446 29.1764 55.0949C29.0928 56.0668 29.0739 56.9435 29.1037 57.8462C29.1764 58.8755 29.3325 59.756 29.6305 60.7632C30.6412 63.6357 31.4196 66.4171 34.2286 69.1607C35.1165 70.073 36.0288 70.6947 36.6876 71.1526L36.9203 71.3164C37.0619 71.4096 37.1978 71.4955 37.3317 71.5737C37.8848 71.864 38.2549 71.9681 38.3222 71.9829C38.5975 72.0572 38.8808 71.9233 38.9977 71.6999C39.1076 71.4654 39.0275 71.1712 38.7987 70.9854C38.7987 70.9854 38.4783 70.7062 38.0672 70.1849C37.7861 69.8683 37.4807 69.4104 37.1254 68.8932C36.8741 68.5282 36.5781 68.1148 36.3025 67.7127C34.9342 65.624 34.1452 62.7089 33.0541 59.7227C32.8401 59.0748 32.6651 58.2352 32.5997 57.5222C32.5126 56.6993 32.4716 55.9065 32.4716 55.1711C32.4398 53.4622 32.5161 51.9952 32.6651 50.8057C32.8362 49.4637 32.9702 48.4565 33.2179 47.7397Z" fill="black"/>
<path d="M61.0035 0C27.3707 0 0 27.3649 0 60.9997C0 94.6271 27.3707 122 61.0035 122C94.6348 122 122 94.6271 122 60.9997C122 27.3649 94.6348 0 61.0035 0ZM61.0035 117.45C29.8743 117.45 4.54774 92.1254 4.54774 60.9997C4.54774 29.8705 29.8743 4.54389 61.0035 4.54389C92.1292 4.54389 117.458 29.8705 117.458 60.9997C117.457 92.1254 92.1289 117.45 61.0035 117.45Z" fill="black"/>
<path d="M152.211 50.0391C152.211 53.3828 151.648 56.3047 150.523 58.8047C149.398 61.2891 147.805 63.1875 145.742 64.5C143.68 65.8125 141.273 66.4688 138.523 66.4688C135.836 66.4688 133.453 65.8125 131.375 64.5C129.297 63.1719 127.68 61.2891 126.523 58.8516C125.383 56.3984 124.797 53.5625 124.766 50.3438V47.8828C124.766 44.6016 125.336 41.7031 126.477 39.1875C127.617 36.6719 129.227 34.75 131.305 33.4219C133.398 32.0781 135.789 31.4062 138.477 31.4062C141.211 31.4062 143.617 32.0703 145.695 33.3984C147.789 34.7109 149.398 36.625 150.523 39.1406C151.648 41.6406 152.211 44.5547 152.211 47.8828V50.0391ZM147.734 47.8359C147.734 43.7891 146.922 40.6875 145.297 38.5312C143.672 36.3594 141.398 35.2734 138.477 35.2734C135.633 35.2734 133.391 36.3594 131.75 38.5312C130.125 40.6875 129.289 43.6875 129.242 47.5312V50.0391C129.242 53.9609 130.062 57.0469 131.703 59.2969C133.359 61.5312 135.633 62.6484 138.523 62.6484C141.43 62.6484 143.68 61.5938 145.273 59.4844C146.867 57.3594 147.688 54.3203 147.734 50.3672V47.8359ZM170.539 44.5312C169.883 44.4219 169.172 44.3672 168.406 44.3672C165.562 44.3672 163.633 45.5781 162.617 48V66H158.281V40.6406H162.5L162.57 43.5703C163.992 41.3047 166.008 40.1719 168.617 40.1719C169.461 40.1719 170.102 40.2812 170.539 40.5V44.5312ZM189.266 66C189.016 65.5 188.812 64.6094 188.656 63.3281C186.641 65.4219 184.234 66.4688 181.438 66.4688C178.938 66.4688 176.883 65.7656 175.273 64.3594C173.68 62.9375 172.883 61.1406 172.883 58.9688C172.883 56.3281 173.883 54.2812 175.883 52.8281C177.898 51.3594 180.727 50.625 184.367 50.625H188.586V48.6328C188.586 47.1172 188.133 45.9141 187.227 45.0234C186.32 44.1172 184.984 43.6641 183.219 43.6641C181.672 43.6641 180.375 44.0547 179.328 44.8359C178.281 45.6172 177.758 46.5625 177.758 47.6719H173.398C173.398 46.4062 173.844 45.1875 174.734 44.0156C175.641 42.8281 176.859 41.8906 178.391 41.2031C179.938 40.5156 181.633 40.1719 183.477 40.1719C186.398 40.1719 188.688 40.9062 190.344 42.375C192 43.8281 192.859 45.8359 192.922 48.3984V60.0703C192.922 62.3984 193.219 64.25 193.812 65.625V66H189.266ZM182.07 62.6953C183.43 62.6953 184.719 62.3438 185.938 61.6406C187.156 60.9375 188.039 60.0234 188.586 58.8984V53.6953H185.188C179.875 53.6953 177.219 55.25 177.219 58.3594C177.219 59.7188 177.672 60.7812 178.578 61.5469C179.484 62.3125 180.648 62.6953 182.07 62.6953Z" fill="black"/>
<path d="M154.113 85.5547C154.113 83.6094 154.574 82.0469 155.496 80.8672C156.418 79.6797 157.625 79.0859 159.117 79.0859C160.602 79.0859 161.777 79.5938 162.645 80.6094V74H164.812V92H162.82L162.715 90.6406C161.848 91.7031 160.641 92.2344 159.094 92.2344C157.625 92.2344 156.426 91.6328 155.496 90.4297C154.574 89.2266 154.113 87.6562 154.113 85.7188V85.5547ZM156.281 85.8008C156.281 87.2383 156.578 88.3633 157.172 89.1758C157.766 89.9883 158.586 90.3945 159.633 90.3945C161.008 90.3945 162.012 89.7773 162.645 88.543V82.7188C161.996 81.5234 161 80.9258 159.656 80.9258C158.594 80.9258 157.766 81.3359 157.172 82.1562C156.578 82.9766 156.281 84.1914 156.281 85.8008ZM167.613 85.543C167.613 84.3008 167.855 83.1836 168.34 82.1914C168.832 81.1992 169.512 80.4336 170.379 79.8945C171.254 79.3555 172.25 79.0859 173.367 79.0859C175.094 79.0859 176.488 79.6836 177.551 80.8789C178.621 82.0742 179.156 83.6641 179.156 85.6484V85.8008C179.156 87.0352 178.918 88.1445 178.441 89.1289C177.973 90.1055 177.297 90.8672 176.414 91.4141C175.539 91.9609 174.531 92.2344 173.391 92.2344C171.672 92.2344 170.277 91.6367 169.207 90.4414C168.145 89.2461 167.613 87.6641 167.613 85.6953V85.543ZM169.793 85.8008C169.793 87.207 170.117 88.3359 170.766 89.1875C171.422 90.0391 172.297 90.4648 173.391 90.4648C174.492 90.4648 175.367 90.0352 176.016 89.1758C176.664 88.3086 176.988 87.0977 176.988 85.543C176.988 84.1523 176.656 83.0273 175.992 82.168C175.336 81.3008 174.461 80.8672 173.367 80.8672C172.297 80.8672 171.434 81.293 170.777 82.1445C170.121 82.9961 169.793 84.2148 169.793 85.8008Z" fill="black"/>
<path d="M134.477 111.195H126.461V125H121.938V90.875H133.234C137.078 90.875 140.031 91.75 142.094 93.5C144.172 95.25 145.211 97.7969 145.211 101.141C145.211 103.266 144.633 105.117 143.477 106.695C142.336 108.273 140.742 109.453 138.695 110.234L146.711 124.719V125H141.883L134.477 111.195ZM126.461 107.516H133.375C135.609 107.516 137.383 106.938 138.695 105.781C140.023 104.625 140.688 103.078 140.688 101.141C140.688 99.0312 140.055 97.4141 138.789 96.2891C137.539 95.1641 135.727 94.5938 133.352 94.5781H126.461V107.516ZM166.516 125C166.266 124.5 166.062 123.609 165.906 122.328C163.891 124.422 161.484 125.469 158.688 125.469C156.188 125.469 154.133 124.766 152.523 123.359C150.93 121.938 150.133 120.141 150.133 117.969C150.133 115.328 151.133 113.281 153.133 111.828C155.148 110.359 157.977 109.625 161.617 109.625H165.836V107.633C165.836 106.117 165.383 104.914 164.477 104.023C163.57 103.117 162.234 102.664 160.469 102.664C158.922 102.664 157.625 103.055 156.578 103.836C155.531 104.617 155.008 105.562 155.008 106.672H150.648C150.648 105.406 151.094 104.188 151.984 103.016C152.891 101.828 154.109 100.891 155.641 100.203C157.188 99.5156 158.883 99.1719 160.727 99.1719C163.648 99.1719 165.938 99.9062 167.594 101.375C169.25 102.828 170.109 104.836 170.172 107.398V119.07C170.172 121.398 170.469 123.25 171.062 124.625V125H166.516ZM159.32 121.695C160.68 121.695 161.969 121.344 163.188 120.641C164.406 119.938 165.289 119.023 165.836 117.898V112.695H162.438C157.125 112.695 154.469 114.25 154.469 117.359C154.469 118.719 154.922 119.781 155.828 120.547C156.734 121.312 157.898 121.695 159.32 121.695ZM181.07 99.6406L181.211 102.828C183.148 100.391 185.68 99.1719 188.805 99.1719C194.164 99.1719 196.867 102.195 196.914 108.242V125H192.578V108.219C192.562 106.391 192.141 105.039 191.312 104.164C190.5 103.289 189.227 102.852 187.492 102.852C186.086 102.852 184.852 103.227 183.789 103.977C182.727 104.727 181.898 105.711 181.305 106.93V125H176.969V99.6406H181.07ZM202.422 112.109C202.422 108.156 203.336 105.016 205.164 102.688C206.992 100.344 209.414 99.1719 212.43 99.1719C215.523 99.1719 217.938 100.266 219.672 102.453L219.883 99.6406H223.844V124.391C223.844 127.672 222.867 130.258 220.914 132.148C218.977 134.039 216.367 134.984 213.086 134.984C211.258 134.984 209.469 134.594 207.719 133.812C205.969 133.031 204.633 131.961 203.711 130.602L205.961 128C207.82 130.297 210.094 131.445 212.781 131.445C214.891 131.445 216.531 130.852 217.703 129.664C218.891 128.477 219.484 126.805 219.484 124.648V122.469C217.75 124.469 215.383 125.469 212.383 125.469C209.414 125.469 207.008 124.273 205.164 121.883C203.336 119.492 202.422 116.234 202.422 112.109ZM206.781 112.602C206.781 115.461 207.367 117.711 208.539 119.352C209.711 120.977 211.352 121.789 213.461 121.789C216.195 121.789 218.203 120.547 219.484 118.062V106.484C218.156 104.062 216.164 102.852 213.508 102.852C211.398 102.852 209.75 103.672 208.562 105.312C207.375 106.953 206.781 109.383 206.781 112.602ZM229.258 112.086C229.258 109.602 229.742 107.367 230.711 105.383C231.695 103.398 233.055 101.867 234.789 100.789C236.539 99.7109 238.531 99.1719 240.766 99.1719C244.219 99.1719 247.008 100.367 249.133 102.758C251.273 105.148 252.344 108.328 252.344 112.297V112.602C252.344 115.07 251.867 117.289 250.914 119.258C249.977 121.211 248.625 122.734 246.859 123.828C245.109 124.922 243.094 125.469 240.812 125.469C237.375 125.469 234.586 124.273 232.445 121.883C230.32 119.492 229.258 116.328 229.258 112.391V112.086ZM233.617 112.602C233.617 115.414 234.266 117.672 235.562 119.375C236.875 121.078 238.625 121.93 240.812 121.93C243.016 121.93 244.766 121.07 246.062 119.352C247.359 117.617 248.008 115.195 248.008 112.086C248.008 109.305 247.344 107.055 246.016 105.336C244.703 103.602 242.953 102.734 240.766 102.734C238.625 102.734 236.898 103.586 235.586 105.289C234.273 106.992 233.617 109.43 233.617 112.602Z" fill="black"/>
</svg>
